<mxfile host="app.diagrams.net" modified="2023-08-26T00:58:41.265Z" agent="Mozilla/5.0 (X11; Ubuntu; Linux x86_64; rv:109.0) Gecko/20100101 Firefox/114.0" etag="IhkcplIgNl8O7lM5wdLz" version="21.1.7" type="device">
  <diagram name="Page-1" id="1LDFoW9mP3QBJ8jXvGLo">
    <mxGraphModel dx="1434" dy="822" grid="1" gridSize="10" guides="1" tooltips="1" connect="1" arrows="1" fold="1" page="1" pageScale="1" pageWidth="850" pageHeight="1100" math="0" shadow="0">
      <root>
        <mxCell id="0" />
        <mxCell id="1" parent="0" />
        <mxCell id="H72fy41aD0SY_tNf71RE-3" value="" style="edgeStyle=orthogonalEdgeStyle;rounded=0;orthogonalLoop=1;jettySize=auto;html=1;" edge="1" parent="1" source="H72fy41aD0SY_tNf71RE-1" target="H72fy41aD0SY_tNf71RE-2">
          <mxGeometry relative="1" as="geometry" />
        </mxCell>
        <mxCell id="H72fy41aD0SY_tNf71RE-1" value="" style="ellipse;html=1;shape=endState;fillColor=#000000;strokeColor=#ff0000;" vertex="1" parent="1">
          <mxGeometry x="410" y="40" width="30" height="30" as="geometry" />
        </mxCell>
        <mxCell id="H72fy41aD0SY_tNf71RE-5" value="" style="edgeStyle=orthogonalEdgeStyle;rounded=0;orthogonalLoop=1;jettySize=auto;html=1;" edge="1" parent="1" source="H72fy41aD0SY_tNf71RE-2" target="H72fy41aD0SY_tNf71RE-4">
          <mxGeometry relative="1" as="geometry" />
        </mxCell>
        <mxCell id="H72fy41aD0SY_tNf71RE-2" value="Register Required Systems" style="rounded=1;whiteSpace=wrap;html=1;" vertex="1" parent="1">
          <mxGeometry x="365" y="120" width="120" height="60" as="geometry" />
        </mxCell>
        <mxCell id="H72fy41aD0SY_tNf71RE-7" value="" style="edgeStyle=orthogonalEdgeStyle;rounded=0;orthogonalLoop=1;jettySize=auto;html=1;" edge="1" parent="1" source="H72fy41aD0SY_tNf71RE-4" target="H72fy41aD0SY_tNf71RE-6">
          <mxGeometry relative="1" as="geometry" />
        </mxCell>
        <mxCell id="H72fy41aD0SY_tNf71RE-4" value="Create Missile Entities" style="rounded=1;whiteSpace=wrap;html=1;" vertex="1" parent="1">
          <mxGeometry x="365" y="240" width="120" height="60" as="geometry" />
        </mxCell>
        <mxCell id="H72fy41aD0SY_tNf71RE-6" value="" style="ellipse;html=1;shape=endState;fillColor=#000000;strokeColor=#ff0000;" vertex="1" parent="1">
          <mxGeometry x="410" y="360" width="30" height="30" as="geometry" />
        </mxCell>
      </root>
    </mxGraphModel>
  </diagram>
</mxfile>
